<?xml version="1.0" standalone="no"?><!DOCTYPE svg PUBLIC "-//W3C//DTD SVG 1.1//EN" "http://www.w3.org/Graphics/SVG/1.1/DTD/svg11.dtd"><svg t="1594553156647" class="icon" viewBox="0 0 1024 1024" version="1.1" xmlns="http://www.w3.org/2000/svg" p-id="6799" width="128" height="128" xmlns:xlink="http://www.w3.org/1999/xlink"><defs><style type="text/css"></style></defs><path d="M924.444444 671.288889c-5.688889 0-11.377778 0-17.066666 2.844444L512 841.955556 116.622222 674.133333c-5.688889-2.844444-11.377778-2.844444-17.066666-2.844444-22.755556 0-42.666667 19.911111-42.666667 42.666667 0 17.066667 11.377778 34.133333 25.6 39.822222l412.444444 176.355555c11.377778 5.688889 22.755556 5.688889 31.288889 0L938.666667 753.777778c14.222222-5.688889 25.6-22.755556 25.6-39.822222 2.844444-22.755556-17.066667-42.666667-39.822223-42.666667z m0-190.577778c-8.533333 0-17.066667 2.844444-17.066666 2.844445L512 651.377778 116.622222 483.555556s-11.377778-2.844444-17.066666-2.844445c-22.755556 0-42.666667 19.911111-42.666667 42.666667 0 17.066667 11.377778 34.133333 25.6 39.822222L494.933333 739.555556c5.688889 2.844444 11.377778 2.844444 17.066667 2.844444 5.688889 0 11.377778 0 17.066667-2.844444l412.444444-176.355556c14.222222-5.688889 25.6-22.755556 25.6-39.822222 0-22.755556-19.911111-42.666667-42.666667-42.666667zM82.488889 372.622222l412.444444 176.355556c5.688889 2.844444 11.377778 2.844444 17.066667 2.844444 5.688889 0 11.377778 0 17.066667-2.844444l412.444444-176.355556c14.222222-5.688889 25.6-22.755556 25.6-39.822222 0-17.066667-11.377778-34.133333-25.6-39.822222L529.066667 116.622222c-11.377778-5.688889-22.755556-5.688889-31.288889 0L82.488889 292.977778c-14.222222 5.688889-25.6 22.755556-25.6 39.822222 0 19.911111 11.377778 34.133333 25.6 39.822222z" p-id="6800"></path></svg>