<?xml version="1.0" standalone="no"?><!DOCTYPE svg PUBLIC "-//W3C//DTD SVG 1.1//EN" "http://www.w3.org/Graphics/SVG/1.1/DTD/svg11.dtd"><svg t="1594553305308" class="icon" viewBox="0 0 1024 1024" version="1.1" xmlns="http://www.w3.org/2000/svg" p-id="13067" width="128" height="128" xmlns:xlink="http://www.w3.org/1999/xlink"><defs><style type="text/css"></style></defs><path d="M223.372434 291.259246c-13.288594 0-22.143269 8.854674-22.143268 22.143268 0 13.282743 8.853211 22.141806 22.143268 22.141806 13.282743 0 22.141806-8.859063 22.141806-22.141806 0-13.288594-8.859063-22.143269-22.141806-22.143268z m-88.573074 0c-13.282743 0-22.141806 8.854674-22.141806 22.143268 0 13.282743 8.859063 22.141806 22.141806 22.141806 13.288594 0 22.141806-8.859063 22.141806-22.141806-0.001463-13.288594-8.854674-22.143269-22.141806-22.143268z m575.700114 0H400.508343c-13.282743 0-22.143269 8.854674-22.143269 22.143268 0 13.282743 8.860526 22.141806 22.143269 22.141806h309.992594c13.290057 0 22.143269-8.859063 22.143269-22.141806-0.001463-13.288594-8.854674-22.143269-22.144732-22.143268zM909.78304 25.550263H289.797851c-48.713143 0-88.568686 39.85408-88.568685 88.567223v22.143268c0 13.288594 8.853211 22.141806 22.143268 22.141806 13.282743 0 22.141806-8.853211 22.141806-22.141806V114.117486c0-24.356571 19.92704-44.283611 44.283611-44.283612h619.985189c24.356571 0 44.283611 19.928503 44.283611 44.283612v619.986651c0 24.358034-19.928503 44.283611-44.283611 44.283612h-22.141806c-13.288594 0-22.143269 8.859063-22.143268 22.143268 0 13.288594 8.853211 22.141806 22.143268 22.141806h22.141806c48.713143 0 88.568686-39.855543 88.568686-88.568686V114.117486c0-48.713143-39.855543-88.567223-88.568686-88.567223zM311.939657 291.259246c-13.288594 0-22.141806 8.854674-22.141806 22.143268 0 13.282743 8.853211 22.141806 22.141806 22.141806 13.282743 0 22.143269-8.859063 22.143269-22.141806 0-13.288594-8.860526-22.143269-22.143269-22.143268z m420.703086-88.567223H112.657554c-48.713143 0-88.568686 39.855543-88.568685 88.567223v619.988114c0 48.71168 39.855543 88.567223 88.568685 88.567223H732.642743c48.713143 0 88.567223-39.855543 88.567223-88.567223v-619.988114c0-48.713143-39.85408-88.567223-88.567223-88.567223z m44.283611 708.553874c0 24.356571-19.928503 44.283611-44.283611 44.283612H112.657554c-24.358034 0-44.283611-19.92704-44.283611-44.283612V424.111543h708.553874v487.134354z m0-531.417966H68.37248v-88.568685c0-24.356571 19.92704-44.283611 44.283611-44.283612H732.642743c24.356571 0 44.283611 19.92704 44.283611 44.283612v88.568685z m0 0" p-id="13068"></path></svg>