<?xml version="1.0" standalone="no"?><!DOCTYPE svg PUBLIC "-//W3C//DTD SVG 1.1//EN" "http://www.w3.org/Graphics/SVG/1.1/DTD/svg11.dtd"><svg t="1594553032499" class="icon" viewBox="0 0 1024 1024" version="1.1" xmlns="http://www.w3.org/2000/svg" p-id="2904" width="128" height="128" xmlns:xlink="http://www.w3.org/1999/xlink"><defs><style type="text/css"></style></defs><path d="M512 1024c-26.650947 0-51.846737-6.117053-70.871579-17.138526L97.818947 834.640842C78.767158 823.592421 60.954947 804.675368 47.616 781.473684 34.277053 758.325895 26.947368 733.318737 26.947368 711.221895V312.778105C26.947368 290.708211 34.277053 265.728 47.616 242.526316S78.767158 200.434526 97.818947 189.413053L441.128421 17.138526C460.153263 6.090105 485.349053 0 512 0c26.624 0 51.819789 6.090105 70.871579 17.138526l343.309474 172.274527c19.051789 11.048421 36.864 29.911579 50.176 53.113263S997.052632 290.708211 997.052632 312.778105v398.44379c0 22.096842-7.356632 47.050105-20.695579 70.251789s-31.124211 42.064842-50.176 53.167158l-343.309474 172.274526c-19.051789 10.967579-44.247579 17.084632-70.871579 17.084632z m0-964.122947c-20.587789 0-40.501895 4.742737-54.676211 12.988631L140.368842 231.100632c-29.615158 17.300211-54.649263 61.170526-54.649263 95.770947v370.283789c0 34.627368 25.034105 78.470737 54.649263 95.770948l316.928 158.208c14.147368 8.299789 34.088421 12.961684 54.676211 12.961684 20.614737 0 40.501895-4.742737 54.649263-12.961684l316.954947-158.208c29.642105-17.300211 54.622316-61.197474 54.622316-95.770948V326.844632c0-34.600421-25.007158-78.470737-54.595368-95.770948l-316.981895-158.181052c-14.120421-8.272842-34.034526-13.015579-54.622316-13.015579z" p-id="2905"></path><path d="M614.184421 539.216842c0 115.469474-93.130105 209.057684-208.006737 209.057684s-208.006737-93.615158-208.006737-209.057684v-159.582316c0-27.324632 22.042947-49.502316 49.25979-49.502315 27.216842 0 49.259789 22.150737 49.259789 49.502315v159.555369c0 60.766316 49.017263 110.053053 109.487158 110.053052 60.469895 0 109.487158-49.232842 109.487158-110.053052v-159.555369c0-27.324632 22.069895-49.502316 49.25979-49.502315s49.232842 22.150737 49.232842 49.502315l0.026947 159.582316zM825.829053 698.799158a49.340632 49.340632 0 0 1-49.25979 49.475368 49.313684 49.313684 0 0 1-49.232842-49.475368V379.634526c0-27.324632 22.016-49.502316 49.232842-49.502315 27.243789 0 49.259789 22.150737 49.25979 49.502315v319.164632z" p-id="2906"></path></svg>